# xmcd
#
# Track frame offsets: 
#        150
#        12895
#        25587
#        34590
#        47317
#        58692
#        68747
#        81465
#        94667
#        109235
#        122900
#        134647
#        150710
#        162967
#        176700
#        189107
#        201352
#        212710
#        226067
#        238000
#        249855
#        261885
#        272807
#        283272
#        292030
#        302982
#        312887
#
# Disc length: 4357 seconds
#
# Revision: 4
# Processed by: cddbd v1.5.2PL0 Copyright (c) Steve Scherf et al.
# Submitted via: ExactAudioCopy v1.0b1
#
DISCID=8211031b
DTITLE=Various Artist - The Cobra Records Story: Chicago Rock and Blues 1956-19
DTITLE=58 (Disk 2)
DYEAR=1900
DGENRE=Blues
TTITLE0=Otis Rush - Three Times A Fool (mono)
TTITLE1=Otis Rush - She's A Good 'Un (mono)
TTITLE2=Betty Everett - Ain't Gonna Cry (alt) (mono)
TTITLE3=Magic Sam - All Night Long (mono)
TTITLE4=Harold Burrage - I Cry For You (alt) (mono)
TTITLE5=Magic Sam - All My Whole Life (mono)
TTITLE6=Otis Rush - It Takes Time (mono)
TTITLE7=Otis Rush - Checking On My Baby (mono)
TTITLE8=Charles Clark and The Willie Dixon Band - Row Your Boat (alt) (m
TTITLE8=ono)
TTITLE9=Buddy Guy - Sit And Cry (The Blues) (mono)
TTITLE10=Buddy Guy - Try To Quit You Baby (mono)
TTITLE11=Magic Sam - Easy Baby (alt) (mono)
TTITLE12=Magic Sam - 21 Days In Jail (alt) (mono)
TTITLE13=Shakey Jake and The Willie Dixon Band - Call Me If You Need Me 
TTITLE13=(mono)
TTITLE14=Shakey Jake and The Willie Dixon Band - Roll Your Moneymaker (m
TTITLE14=ono)
TTITLE15=Otis Rush - Double Trouble (mono)
TTITLE16=Otis Rush - Keep On Loving Me Baby (mono)
TTITLE17=Buddy Guy - This Is The End (mono)
TTITLE18=Buddy Guy - You Sure Can't Do (mono)
TTITLE19=Otis Rush - All Your Love (I Miss Loving) (mono)
TTITLE20=Otis Rush - My Baby's A Good 'Un (mono)
TTITLE21=Ike Turner's Kings Of Rhythm - Matchbox (mono)
TTITLE22=Ike Turner's Kings Of Rhythm - You've Got To Lose (mono)
TTITLE23=Ike Turner's Kings Of Rhythm - Box Top (mono)
TTITLE24=Ike Turner's Kings Of Rhythm - You Keep On Worrying Me (mono)
TTITLE25=Ike Turner's Kings Of Rhythm - (I Know) You Don't Love Me (mo
TTITLE25=no)
TTITLE26=Ike Turner's Kings Of Rhythm - Down And Out (mono)
EXTD=
EXTT0=
EXTT1=
EXTT2=
EXTT3=
EXTT4=
EXTT5=
EXTT6=
EXTT7=
EXTT8=
EXTT9=
EXTT10=
EXTT11=
EXTT12=
EXTT13=
EXTT14=
EXTT15=
EXTT16=
EXTT17=
EXTT18=
EXTT19=
EXTT20=
EXTT21=
EXTT22=
EXTT23=
EXTT24=
EXTT25=
EXTT26=
PLAYORDER=
